<svg xmlns="http://www.w3.org/2000/svg" xmlns:xlink="http://www.w3.org/1999/xlink" width="25" height="25" viewBox="0 0 25 25"><defs><filter id="a" x="6.923" y="3.639" width="11.002" height="18.002" filterUnits="userSpaceOnUse"><feOffset input="SourceAlpha"/><feGaussianBlur stdDeviation="0.5" result="b"/><feFlood flood-opacity="0.122"/><feComposite operator="in" in2="b"/><feComposite in="SourceGraphic"/></filter></defs><g transform="translate(-2840 -9732)"><g transform="translate(2840 9732)"><g transform="translate(0 0)"><path d="M12.5,0A12.5,12.5,0,1,1,0,12.5,12.5,12.5,0,0,1,12.5,0Z" fill="#0dba4b"/><g transform="translate(8.423 5.138)"><g transform="translate(0.007 0)" opacity="0.75"><path d="M18.836,10.719V12.5a2.025,2.025,0,0,1-2.059,2.049H15.731a3.235,3.235,0,0,0-1.671.574,1.958,1.958,0,0,0-.61,2.36A1.623,1.623,0,0,0,14.6,18.3a2.031,2.031,0,0,0,2.251-.763,2.971,2.971,0,0,0,.653-1.507.882.882,0,0,1,.933-.744.86.86,0,0,1,.872.781,2.123,2.123,0,0,1-.128.781,4.459,4.459,0,0,1-1.829,2.6,3.9,3.9,0,0,1-3.776.3A3.1,3.1,0,0,1,11.52,17.02a3.734,3.734,0,0,1,3.162-4,5.941,5.941,0,0,1,1.83-.171c.317,0,.463-.091.518-.39a2.647,2.647,0,0,0,.037-.537V9.413A3.75,3.75,0,0,0,16.8,7.906a1.714,1.714,0,0,0-1.342-1.092A1.974,1.974,0,0,0,13.1,8.858a2.11,2.11,0,0,0,.335,1.061,1.684,1.684,0,0,0,1.22.683,3.446,3.446,0,0,0,.61.037.9.9,0,0,1,.946.809.836.836,0,0,1-.809.872h0a3.879,3.879,0,0,1-3.343-1.342,3.129,3.129,0,0,1-.689-1.708,3.3,3.3,0,0,1,.23-1.954,3.867,3.867,0,0,1,2.885-2.123,3.465,3.465,0,0,1,4.105,2.385,6.465,6.465,0,0,1,.281,2.08C18.836,10.011,18.836,10.364,18.836,10.719Z" transform="translate(-11.31 -5.102)"/></g><g transform="matrix(1, 0, 0, 1, -8.42, -5.14)" filter="url(#a)"><path d="M18.836,10.719V12.5a2.025,2.025,0,0,1-2.059,2.049H15.731a3.235,3.235,0,0,0-1.671.574,1.958,1.958,0,0,0-.61,2.36A1.623,1.623,0,0,0,14.6,18.3a2.031,2.031,0,0,0,2.251-.763,2.971,2.971,0,0,0,.653-1.507.882.882,0,0,1,.933-.744.86.86,0,0,1,.872.781,2.123,2.123,0,0,1-.128.781,4.459,4.459,0,0,1-1.829,2.6,3.9,3.9,0,0,1-3.776.3A3.1,3.1,0,0,1,11.52,17.02a3.734,3.734,0,0,1,3.162-4,5.941,5.941,0,0,1,1.83-.171c.317,0,.463-.091.518-.39a2.647,2.647,0,0,0,.037-.537V9.413A3.75,3.75,0,0,0,16.8,7.906a1.714,1.714,0,0,0-1.342-1.092A1.974,1.974,0,0,0,13.1,8.858a2.11,2.11,0,0,0,.335,1.061,1.684,1.684,0,0,0,1.22.683,3.446,3.446,0,0,0,.61.037.9.9,0,0,1,.946.809.836.836,0,0,1-.809.872h0a3.879,3.879,0,0,1-3.343-1.342,3.129,3.129,0,0,1-.689-1.708,3.3,3.3,0,0,1,.23-1.954,3.867,3.867,0,0,1,2.885-2.123,3.465,3.465,0,0,1,4.105,2.385,6.465,6.465,0,0,1,.281,2.08C18.836,10.011,18.836,10.364,18.836,10.719Z" transform="translate(-2.89 0.04)" fill="#fff"/></g></g></g></g></g></svg>