<svg xmlns="http://www.w3.org/2000/svg" width="38" height="38" viewBox="0 0 38 38"><path d="M214.235,210.617A3.617,3.617,0,1,1,210.617,207,3.617,3.617,0,0,1,214.235,210.617Zm0,0" transform="translate(-191.617 -191.617)" fill="#0dba4b"/><path d="M152.842,137.985a3.594,3.594,0,0,0-2.06-2.06,6,6,0,0,0-2.015-.373c-1.145-.052-1.488-.063-4.385-.063s-3.241.011-4.385.063a6.008,6.008,0,0,0-2.015.374,3.6,3.6,0,0,0-2.06,2.06,6.006,6.006,0,0,0-.373,2.015c-.052,1.144-.063,1.487-.063,4.385s.011,3.241.063,4.385a6,6,0,0,0,.373,2.015,3.594,3.594,0,0,0,2.06,2.06,6,6,0,0,0,2.015.374c1.144.052,1.487.063,4.385.063s3.241-.011,4.385-.063a6,6,0,0,0,2.015-.374,3.594,3.594,0,0,0,2.06-2.06,6.01,6.01,0,0,0,.374-2.015c.052-1.145.063-1.488.063-4.385s-.011-3.241-.063-4.385A6,6,0,0,0,152.842,137.985Zm-8.46,11.973a5.573,5.573,0,1,1,5.573-5.573A5.573,5.573,0,0,1,144.382,149.958Zm5.793-10.063a1.3,1.3,0,1,1,1.3-1.3A1.3,1.3,0,0,1,150.175,139.895Zm0,0" transform="translate(-125.382 -125.385)" fill="#0dba4b"/><path d="M19,0A19,19,0,1,0,38,19,19,19,0,0,0,19,0ZM29.844,23.5a8,8,0,0,1-.507,2.648,5.579,5.579,0,0,1-3.191,3.191,8.01,8.01,0,0,1-2.648.507c-1.163.053-1.535.066-4.5.066s-3.335-.013-4.5-.066a8.01,8.01,0,0,1-2.648-.507,5.579,5.579,0,0,1-3.191-3.191A8,8,0,0,1,8.156,23.5C8.1,22.335,8.09,21.963,8.09,19s.012-3.335.066-4.5a8.005,8.005,0,0,1,.507-2.648,5.582,5.582,0,0,1,3.191-3.191A8.012,8.012,0,0,1,14.5,8.156C15.665,8.1,16.037,8.09,19,8.09s3.335.013,4.5.066a8.014,8.014,0,0,1,2.648.506,5.58,5.58,0,0,1,3.191,3.191,8,8,0,0,1,.507,2.648c.053,1.163.066,1.535.066,4.5S29.9,22.335,29.844,23.5Zm0,0" fill="#0dba4b"/></svg>