<svg xmlns="http://www.w3.org/2000/svg" width="38" height="38" viewBox="0 0 38 38"><path d="M224.113,213.546l4.781-2.753-4.781-2.753Zm0,0" transform="translate(-206.748 -191.792)" fill="#0dba4b"/><path d="M19,0A19,19,0,1,0,38,19,19,19,0,0,0,19,0ZM30.872,19.019a31.359,31.359,0,0,1-.489,5.711,2.975,2.975,0,0,1-2.093,2.093c-1.858.489-9.29.489-9.29.489s-7.413,0-9.29-.509a2.975,2.975,0,0,1-2.093-2.093A31.221,31.221,0,0,1,7.128,19a31.338,31.338,0,0,1,.489-5.711A3.036,3.036,0,0,1,9.71,11.177c1.858-.489,9.29-.489,9.29-.489s7.432,0,9.29.509a2.975,2.975,0,0,1,2.093,2.093,29.759,29.759,0,0,1,.489,5.73Zm0,0" fill="#0dba4b"/></svg>